<svg xmlns="http://www.w3.org/2000/svg" xmlns:xlink="http://www.w3.org/1999/xlink" width="500" zoomAndPan="magnify" viewBox="0 0 375 374.999991" height="500" preserveAspectRatio="xMidYMid meet" version="1.0"><defs><g/><clipPath id="a86ed8ec20"><path d="M 26.117188 47.402344 L 71.113281 47.402344 L 71.113281 62.640625 L 26.117188 62.640625 Z M 26.117188 47.402344 " clip-rule="nonzero"/></clipPath><clipPath id="2ac9bfea41"><path d="M 0.117188 0.402344 L 45.113281 0.402344 L 45.113281 15.378906 L 0.117188 15.378906 Z M 0.117188 0.402344 " clip-rule="nonzero"/></clipPath><clipPath id="40b13cb453"><rect x="0" width="46" y="0" height="16"/></clipPath><clipPath id="fcb0d499cd"><path d="M 23 0.761719 L 59 0.761719 L 59 48 L 23 48 Z M 23 0.761719 " clip-rule="nonzero"/></clipPath><clipPath id="5e76c40d84"><path d="M 36.214844 0.792969 L 58.796875 39.710938 L 45.617188 47.359375 L 23.035156 8.445312 Z M 36.214844 0.792969 " clip-rule="nonzero"/></clipPath><clipPath id="aca1364510"><path d="M 5 0.761719 L 31 0.761719 L 31 47.558594 L 5 47.558594 Z M 5 0.761719 " clip-rule="nonzero"/></clipPath><clipPath id="0b64dfa42b"><path d="M 13.214844 0.792969 L 35.796875 39.710938 L 22.617188 47.359375 L 0.0351562 8.445312 Z M 13.214844 0.792969 " clip-rule="nonzero"/></clipPath><clipPath id="43674ccd63"><path d="M 0.261719 8.3125 L 22.84375 47.226562 L 36.023438 39.578125 L 13.441406 0.664062 Z M 0.261719 8.3125 " clip-rule="nonzero"/></clipPath><clipPath id="f59e958910"><rect x="0" width="36" y="0" height="48"/></clipPath><clipPath id="dc47ff0fb5"><path d="M 0.28125 23 L 37 23 L 37 70 L 0.28125 70 Z M 0.28125 23 " clip-rule="nonzero"/></clipPath><clipPath id="5586042ce6"><path d="M 0.523438 62.132812 L 22.839844 23.0625 L 36.070312 30.621094 L 13.757812 69.691406 Z M 0.523438 62.132812 " clip-rule="nonzero"/></clipPath><clipPath id="a27f35b2c6"><path d="M 0.519531 5 L 36 5 L 36 42 L 0.519531 42 Z M 0.519531 5 " clip-rule="nonzero"/></clipPath><clipPath id="8f243cbd89"><path d="M 0.523438 39.132812 L 22.839844 0.0625 L 36.070312 7.621094 L 13.757812 46.691406 Z M 0.523438 39.132812 " clip-rule="nonzero"/></clipPath><clipPath id="eb22c67b0d"><path d="M 13.53125 46.558594 L 35.84375 7.492188 L 22.613281 -0.0664062 L 0.296875 39.003906 Z M 13.53125 46.558594 " clip-rule="nonzero"/></clipPath><clipPath id="1bd8aa9fbd"><rect x="0" width="37" y="0" height="47"/></clipPath><clipPath id="0b6da0c5ba"><rect x="0" width="314" y="0" height="78"/></clipPath></defs><rect x="-37.5" width="450" fill="#ffffff" y="-37.499999" height="449.999989" fill-opacity="1"/><rect x="-37.5" width="450" fill="#000000" y="-37.499999" height="449.999989" fill-opacity="1"/><g transform="matrix(1, 0, 0, 1, 23, 149)"><g clip-path="url(#0b6da0c5ba)"><g clip-path="url(#a86ed8ec20)"><g transform="matrix(1, 0, 0, 1, 26, 47)"><g clip-path="url(#40b13cb453)"><g clip-path="url(#2ac9bfea41)"><path fill="#d20505" d="M 45.300781 15.378906 L 15.101562 15.378906 C 6.828125 15.378906 0.121094 8.675781 0.121094 0.402344 L 30.324219 0.402344 C 38.59375 0.402344 45.300781 7.109375 45.300781 15.378906 Z M 45.300781 15.378906 " fill-opacity="1" fill-rule="nonzero"/></g></g></g></g><g clip-path="url(#fcb0d499cd)"><g clip-path="url(#5e76c40d84)"><g transform="matrix(1, 0, 0, 1, 23, 0)"><g clip-path="url(#f59e958910)"><g clip-path="url(#aca1364510)"><g clip-path="url(#0b64dfa42b)"><g clip-path="url(#43674ccd63)"><path fill="#d9d9d9" d="M 22.9375 47.390625 L 15.378906 34.367188 L 7.820312 21.339844 L 7.78125 21.269531 C 3.628906 14.117188 6.0625 4.949219 13.21875 0.796875 L 20.777344 13.824219 L 28.335938 26.847656 L 28.375 26.917969 C 32.527344 34.074219 30.09375 43.238281 22.9375 47.390625 Z M 22.9375 47.390625 " fill-opacity="1" fill-rule="nonzero"/></g></g></g></g></g></g></g><g clip-path="url(#dc47ff0fb5)"><g clip-path="url(#5586042ce6)"><g transform="matrix(1, 0, 0, 1, 0.000000000000003553, 23)"><g clip-path="url(#1bd8aa9fbd)"><g clip-path="url(#a27f35b2c6)"><g clip-path="url(#8f243cbd89)"><g clip-path="url(#eb22c67b0d)"><path fill="#043469" d="M 35.9375 7.328125 L 28.46875 20.402344 L 21 33.480469 L 20.960938 33.550781 C 16.859375 40.734375 7.707031 43.230469 0.523438 39.128906 L 7.996094 26.050781 L 15.464844 12.976562 L 15.503906 12.90625 C 19.605469 5.722656 28.753906 3.222656 35.9375 7.328125 Z M 35.9375 7.328125 " fill-opacity="1" fill-rule="nonzero"/></g></g></g></g></g></g></g><g fill="#ffffff" fill-opacity="1"><g transform="translate(71.306669, 59.199752)"><g><path d="M 8.71875 -31.34375 L 8.71875 -4.078125 L 24.65625 -4.078125 L 24.65625 0 L 4.5 0 L 4.5 -31.34375 Z M 8.71875 -31.34375 "/></g></g></g><g fill="#ffffff" fill-opacity="1"><g transform="translate(96.442015, 59.199752)"><g><path d="M 12.921875 -31.34375 C 16.328125 -31.34375 18.988281 -30.488281 20.90625 -28.78125 C 22.832031 -27.070312 23.796875 -24.6875 23.796875 -21.625 C 23.796875 -19.863281 23.441406 -18.21875 22.734375 -16.6875 C 22.023438 -15.15625 20.882812 -13.910156 19.3125 -12.953125 C 17.738281 -12.003906 15.75 -11.53125 13.34375 -11.53125 L 8.71875 -11.53125 L 8.71875 0 L 4.5 0 L 4.5 -31.34375 Z M 13.34375 -15.609375 C 14.851562 -15.609375 16.078125 -15.925781 17.015625 -16.5625 C 17.953125 -17.195312 18.625 -17.96875 19.03125 -18.875 C 19.4375 -19.78125 19.640625 -20.671875 19.640625 -21.546875 C 19.640625 -23.046875 19.144531 -24.378906 18.15625 -25.546875 C 17.175781 -26.722656 15.644531 -27.3125 13.5625 -27.3125 L 8.71875 -27.3125 L 8.71875 -15.609375 Z M 13.34375 -15.609375 "/></g></g></g><g fill="#ffffff" fill-opacity="1"><g transform="translate(120.407241, 59.199752)"><g><path d="M 29.34375 0 L 25.140625 0 L 25.140625 -13.734375 L 8.71875 -13.734375 L 8.71875 0 L 4.5 0 L 4.5 -31.34375 L 8.71875 -31.34375 L 8.71875 -17.765625 L 25.140625 -17.765625 L 25.140625 -31.34375 L 29.34375 -31.34375 Z M 29.34375 0 "/></g></g></g><g fill="#ffffff" fill-opacity="1"><g transform="translate(152.433287, 59.199752)"><g><path d="M 20.9375 -8.234375 L 8.890625 -8.234375 L 5.546875 0 L 1.390625 0 L 15.078125 -32.640625 L 15.34375 -32.640625 L 29.046875 0 L 24.1875 0 Z M 19.5 -11.875 L 15.046875 -23.3125 L 10.40625 -11.875 Z M 19.5 -11.875 "/></g></g></g><g fill="#ffffff" fill-opacity="1"><g transform="translate(180.992314, 59.199752)"><g><path d="M 27.515625 -2.34375 C 26.503906 -1.675781 25.226562 -1.0625 23.6875 -0.5 C 22.144531 0.0625 20.460938 0.34375 18.640625 0.34375 C 15.429688 0.34375 12.601562 -0.363281 10.15625 -1.78125 C 7.71875 -3.195312 5.84375 -5.101562 4.53125 -7.5 C 3.21875 -9.894531 2.5625 -12.539062 2.5625 -15.4375 C 2.5625 -18.519531 3.222656 -21.296875 4.546875 -23.765625 C 5.878906 -26.242188 7.722656 -28.179688 10.078125 -29.578125 C 12.429688 -30.984375 15.097656 -31.6875 18.078125 -31.6875 C 19.835938 -31.6875 21.484375 -31.453125 23.015625 -30.984375 C 24.546875 -30.523438 25.921875 -29.921875 27.140625 -29.171875 L 25.4375 -25.21875 C 23.039062 -26.84375 20.628906 -27.65625 18.203125 -27.65625 C 16.179688 -27.65625 14.3125 -27.117188 12.59375 -26.046875 C 10.875 -24.984375 9.5 -23.53125 8.46875 -21.6875 C 7.445312 -19.851562 6.9375 -17.835938 6.9375 -15.640625 C 6.9375 -13.390625 7.40625 -11.351562 8.34375 -9.53125 C 9.28125 -7.71875 10.625 -6.296875 12.375 -5.265625 C 14.125 -4.242188 16.140625 -3.734375 18.421875 -3.734375 C 21.222656 -3.734375 23.664062 -4.523438 25.75 -6.109375 Z M 27.515625 -2.34375 "/></g></g></g><g fill="#ffffff" fill-opacity="1"><g transform="translate(209.247978, 59.199752)"><g><path d="M 2.5625 -15.640625 C 2.5625 -18.503906 3.28125 -21.164062 4.71875 -23.625 C 6.164062 -26.082031 8.109375 -28.039062 10.546875 -29.5 C 12.992188 -30.957031 15.660156 -31.6875 18.546875 -31.6875 C 21.410156 -31.6875 24.066406 -30.957031 26.515625 -29.5 C 28.972656 -28.039062 30.929688 -26.082031 32.390625 -23.625 C 33.859375 -21.164062 34.59375 -18.503906 34.59375 -15.640625 C 34.59375 -12.753906 33.867188 -10.082031 32.421875 -7.625 C 30.972656 -5.164062 29.015625 -3.222656 26.546875 -1.796875 C 24.078125 -0.367188 21.410156 0.34375 18.546875 0.34375 C 15.660156 0.34375 12.988281 -0.363281 10.53125 -1.78125 C 8.070312 -3.195312 6.128906 -5.125 4.703125 -7.5625 C 3.273438 -10 2.5625 -12.691406 2.5625 -15.640625 Z M 6.890625 -15.609375 C 6.890625 -13.460938 7.410156 -11.476562 8.453125 -9.65625 C 9.492188 -7.84375 10.914062 -6.398438 12.71875 -5.328125 C 14.53125 -4.265625 16.503906 -3.734375 18.640625 -3.734375 C 20.773438 -3.734375 22.726562 -4.257812 24.5 -5.3125 C 26.28125 -6.363281 27.679688 -7.804688 28.703125 -9.640625 C 29.734375 -11.472656 30.25 -13.472656 30.25 -15.640625 C 30.25 -17.804688 29.726562 -19.816406 28.6875 -21.671875 C 27.65625 -23.523438 26.242188 -24.984375 24.453125 -26.046875 C 22.660156 -27.117188 20.691406 -27.65625 18.546875 -27.65625 C 16.410156 -27.65625 14.445312 -27.113281 12.65625 -26.03125 C 10.863281 -24.945312 9.453125 -23.476562 8.421875 -21.625 C 7.398438 -19.78125 6.890625 -17.773438 6.890625 -15.609375 Z M 6.890625 -15.609375 "/></g></g></g><g fill="#ffffff" fill-opacity="1"><g transform="translate(244.567682, 59.199752)"><g><path d="M 35.671875 -32.328125 L 35.671875 0 L 31.515625 0 L 31.515625 -20.28125 L 19.984375 -3.9375 L 19.890625 -3.9375 L 8.578125 -19.71875 L 8.578125 0 L 4.5 0 L 4.5 -32.328125 L 4.546875 -32.328125 L 19.984375 -10.484375 L 35.625 -32.328125 Z M 35.671875 -32.328125 "/></g></g></g><g fill="#ffffff" fill-opacity="1"><g transform="translate(212.276045, 73.743457)"><g><path d="M 6.671875 -8.328125 L 6.671875 -6.953125 L 4.28125 -6.953125 L 4.28125 0 L 2.640625 0 L 2.640625 -6.953125 L 0.234375 -6.953125 L 0.234375 -8.328125 Z M 6.671875 -8.328125 "/></g></g></g><g fill="#ffffff" fill-opacity="1"><g transform="translate(219.18103, 73.743457)"><g><path d="M 2.734375 -3.65625 L 2.734375 -1.375 L 6.703125 -1.375 L 6.703125 0 L 1.078125 0 L 1.078125 -8.328125 L 6.609375 -8.328125 L 6.609375 -6.953125 L 2.734375 -6.953125 L 2.734375 -5 L 6.125 -5 L 6.125 -3.65625 Z M 2.734375 -3.65625 "/></g></g></g><g fill="#ffffff" fill-opacity="1"><g transform="translate(226.342393, 73.743457)"><g><path d="M 4.546875 0.125 C 3.785156 0.125 3.109375 -0.0351562 2.515625 -0.359375 C 1.929688 -0.679688 1.472656 -1.160156 1.140625 -1.796875 C 0.816406 -2.441406 0.65625 -3.234375 0.65625 -4.171875 C 0.65625 -5.109375 0.816406 -5.894531 1.140625 -6.53125 C 1.472656 -7.175781 1.929688 -7.65625 2.515625 -7.96875 C 3.109375 -8.289062 3.785156 -8.453125 4.546875 -8.453125 C 5.347656 -8.453125 6.03125 -8.296875 6.59375 -7.984375 C 7.15625 -7.671875 7.554688 -7.191406 7.796875 -6.546875 L 6.59375 -5.8125 L 6.453125 -5.8125 C 6.273438 -6.25 6.03125 -6.5625 5.71875 -6.75 C 5.414062 -6.9375 5.023438 -7.03125 4.546875 -7.03125 C 3.859375 -7.03125 3.320312 -6.800781 2.9375 -6.34375 C 2.550781 -5.882812 2.359375 -5.160156 2.359375 -4.171875 C 2.359375 -3.171875 2.550781 -2.441406 2.9375 -1.984375 C 3.320312 -1.535156 3.859375 -1.3125 4.546875 -1.3125 C 5.628906 -1.3125 6.296875 -1.835938 6.546875 -2.890625 L 6.6875 -2.890625 L 7.90625 -2.25 C 7.675781 -1.457031 7.285156 -0.863281 6.734375 -0.46875 C 6.179688 -0.0703125 5.453125 0.125 4.546875 0.125 Z M 4.546875 0.125 "/></g></g></g><g fill="#ffffff" fill-opacity="1"><g transform="translate(234.512152, 73.743457)"><g><path d="M 6.46875 -5.203125 L 6.46875 -8.328125 L 8.109375 -8.328125 L 8.109375 0 L 6.46875 0 L 6.46875 -3.796875 L 2.734375 -3.796875 L 2.734375 0 L 1.078125 0 L 1.078125 -8.328125 L 2.734375 -8.328125 L 2.734375 -5.203125 Z M 6.46875 -5.203125 "/></g></g></g><g fill="#ffffff" fill-opacity="1"><g transform="translate(243.701712, 73.743457)"><g/></g></g><g fill="#ffffff" fill-opacity="1"><g transform="translate(246.453456, 73.743457)"><g><path d="M 3.40625 0.125 C 2.800781 0.125 2.269531 0.0195312 1.8125 -0.1875 C 1.363281 -0.394531 1.015625 -0.6875 0.765625 -1.0625 C 0.523438 -1.445312 0.40625 -1.894531 0.40625 -2.40625 C 0.40625 -2.945312 0.539062 -3.398438 0.8125 -3.765625 C 1.09375 -4.128906 1.507812 -4.425781 2.0625 -4.65625 L 2.0625 -4.78125 C 1.8125 -5.09375 1.628906 -5.378906 1.515625 -5.640625 C 1.410156 -5.898438 1.359375 -6.179688 1.359375 -6.484375 C 1.359375 -6.867188 1.445312 -7.207031 1.625 -7.5 C 1.8125 -7.800781 2.078125 -8.035156 2.421875 -8.203125 C 2.773438 -8.367188 3.191406 -8.453125 3.671875 -8.453125 C 4.128906 -8.453125 4.519531 -8.375 4.84375 -8.21875 C 5.164062 -8.070312 5.410156 -7.863281 5.578125 -7.59375 C 5.753906 -7.320312 5.84375 -7.007812 5.84375 -6.65625 C 5.84375 -6.175781 5.703125 -5.757812 5.421875 -5.40625 C 5.140625 -5.0625 4.695312 -4.773438 4.09375 -4.546875 L 4.09375 -4.4375 L 5.625 -2.40625 C 5.71875 -2.601562 5.78125 -2.828125 5.8125 -3.078125 C 5.851562 -3.335938 5.875 -3.628906 5.875 -3.953125 L 5.859375 -4.234375 L 7.203125 -4.234375 C 7.203125 -3.066406 6.972656 -2.125 6.515625 -1.40625 C 6.609375 -1.320312 6.6875 -1.265625 6.75 -1.234375 C 6.820312 -1.210938 6.898438 -1.203125 6.984375 -1.203125 C 7.066406 -1.203125 7.128906 -1.203125 7.171875 -1.203125 C 7.222656 -1.210938 7.28125 -1.226562 7.34375 -1.25 L 7.4375 -1.21875 L 7.625 -0.078125 C 7.550781 -0.0234375 7.445312 0.0078125 7.3125 0.03125 C 7.1875 0.0625 7.039062 0.078125 6.875 0.078125 C 6.601562 0.078125 6.359375 0.03125 6.140625 -0.0625 C 5.929688 -0.15625 5.734375 -0.296875 5.546875 -0.484375 L 5.421875 -0.484375 C 4.953125 -0.078125 4.28125 0.125 3.40625 0.125 Z M 3.40625 -5.34375 C 3.757812 -5.519531 4.015625 -5.695312 4.171875 -5.875 C 4.328125 -6.050781 4.40625 -6.273438 4.40625 -6.546875 C 4.40625 -6.785156 4.335938 -6.96875 4.203125 -7.09375 C 4.066406 -7.21875 3.882812 -7.28125 3.65625 -7.28125 C 3.414062 -7.28125 3.222656 -7.210938 3.078125 -7.078125 C 2.941406 -6.941406 2.875 -6.753906 2.875 -6.515625 C 2.875 -6.328125 2.910156 -6.148438 2.984375 -5.984375 C 3.054688 -5.828125 3.195312 -5.613281 3.40625 -5.34375 Z M 3.609375 -1.234375 C 3.972656 -1.234375 4.285156 -1.304688 4.546875 -1.453125 L 2.6875 -3.8125 C 2.46875 -3.664062 2.304688 -3.492188 2.203125 -3.296875 C 2.097656 -3.097656 2.046875 -2.867188 2.046875 -2.609375 C 2.046875 -2.328125 2.109375 -2.082031 2.234375 -1.875 C 2.359375 -1.675781 2.539062 -1.519531 2.78125 -1.40625 C 3.019531 -1.289062 3.296875 -1.234375 3.609375 -1.234375 Z M 3.609375 -1.234375 "/></g></g></g><g fill="#ffffff" fill-opacity="1"><g transform="translate(254.235807, 73.743457)"><g/></g></g><g fill="#ffffff" fill-opacity="1"><g transform="translate(256.987551, 73.743457)"><g><path d="M 4.046875 0.125 C 3.347656 0.125 2.742188 -0.03125 2.234375 -0.34375 C 1.734375 -0.664062 1.34375 -1.144531 1.0625 -1.78125 C 0.789062 -2.425781 0.65625 -3.222656 0.65625 -4.171875 C 0.65625 -5.117188 0.816406 -5.910156 1.140625 -6.546875 C 1.472656 -7.191406 1.929688 -7.671875 2.515625 -7.984375 C 3.109375 -8.296875 3.796875 -8.453125 4.578125 -8.453125 C 5.367188 -8.453125 6.046875 -8.300781 6.609375 -8 C 7.171875 -7.707031 7.566406 -7.269531 7.796875 -6.6875 L 6.59375 -5.953125 L 6.453125 -5.96875 C 6.273438 -6.332031 6.03125 -6.597656 5.71875 -6.765625 C 5.414062 -6.941406 5.035156 -7.03125 4.578125 -7.03125 C 3.859375 -7.03125 3.304688 -6.800781 2.921875 -6.34375 C 2.546875 -5.894531 2.359375 -5.171875 2.359375 -4.171875 C 2.359375 -3.160156 2.535156 -2.425781 2.890625 -1.96875 C 3.242188 -1.507812 3.769531 -1.28125 4.46875 -1.28125 C 5.0625 -1.28125 5.5 -1.414062 5.78125 -1.6875 C 6.070312 -1.957031 6.21875 -2.363281 6.21875 -2.90625 L 6.21875 -3.265625 L 4.25 -3.265625 L 4.25 -4.59375 L 7.859375 -4.59375 L 7.859375 0 L 6.28125 0 L 6.28125 -1.109375 L 6.15625 -1.140625 C 5.988281 -0.734375 5.726562 -0.421875 5.375 -0.203125 C 5.03125 0.015625 4.585938 0.125 4.046875 0.125 Z M 4.046875 0.125 "/></g></g></g><g fill="#ffffff" fill-opacity="1"><g transform="translate(265.675759, 73.743457)"><g><path d="M 8 0 L 6.265625 0 L 5.640625 -1.921875 L 2.4375 -1.921875 L 1.8125 0 L 0.125 0 L 3 -8.328125 L 5.125 -8.328125 Z M 3.953125 -6.59375 L 2.890625 -3.3125 L 5.1875 -3.3125 L 4.109375 -6.59375 Z M 3.953125 -6.59375 "/></g></g></g><g fill="#ffffff" fill-opacity="1"><g transform="translate(273.794249, 73.743457)"><g><path d="M 4.078125 -8.328125 C 5.429688 -8.328125 6.460938 -7.976562 7.171875 -7.28125 C 7.890625 -6.582031 8.25 -5.546875 8.25 -4.171875 C 8.25 -2.796875 7.890625 -1.753906 7.171875 -1.046875 C 6.460938 -0.347656 5.429688 0 4.078125 0 L 1.078125 0 L 1.078125 -8.328125 Z M 3.984375 -1.390625 C 4.835938 -1.390625 5.476562 -1.609375 5.90625 -2.046875 C 6.332031 -2.484375 6.546875 -3.191406 6.546875 -4.171875 C 6.546875 -5.140625 6.332031 -5.84375 5.90625 -6.28125 C 5.476562 -6.726562 4.835938 -6.953125 3.984375 -6.953125 L 2.734375 -6.953125 L 2.734375 -1.390625 Z M 3.984375 -1.390625 "/></g></g></g><g fill="#ffffff" fill-opacity="1"><g transform="translate(282.69895, 73.743457)"><g><path d="M 4.046875 0.125 C 3.347656 0.125 2.742188 -0.03125 2.234375 -0.34375 C 1.734375 -0.664062 1.34375 -1.144531 1.0625 -1.78125 C 0.789062 -2.425781 0.65625 -3.222656 0.65625 -4.171875 C 0.65625 -5.117188 0.816406 -5.910156 1.140625 -6.546875 C 1.472656 -7.191406 1.929688 -7.671875 2.515625 -7.984375 C 3.109375 -8.296875 3.796875 -8.453125 4.578125 -8.453125 C 5.367188 -8.453125 6.046875 -8.300781 6.609375 -8 C 7.171875 -7.707031 7.566406 -7.269531 7.796875 -6.6875 L 6.59375 -5.953125 L 6.453125 -5.96875 C 6.273438 -6.332031 6.03125 -6.597656 5.71875 -6.765625 C 5.414062 -6.941406 5.035156 -7.03125 4.578125 -7.03125 C 3.859375 -7.03125 3.304688 -6.800781 2.921875 -6.34375 C 2.546875 -5.894531 2.359375 -5.171875 2.359375 -4.171875 C 2.359375 -3.160156 2.535156 -2.425781 2.890625 -1.96875 C 3.242188 -1.507812 3.769531 -1.28125 4.46875 -1.28125 C 5.0625 -1.28125 5.5 -1.414062 5.78125 -1.6875 C 6.070312 -1.957031 6.21875 -2.363281 6.21875 -2.90625 L 6.21875 -3.265625 L 4.25 -3.265625 L 4.25 -4.59375 L 7.859375 -4.59375 L 7.859375 0 L 6.28125 0 L 6.28125 -1.109375 L 6.15625 -1.140625 C 5.988281 -0.734375 5.726562 -0.421875 5.375 -0.203125 C 5.03125 0.015625 4.585938 0.125 4.046875 0.125 Z M 4.046875 0.125 "/></g></g></g><g fill="#ffffff" fill-opacity="1"><g transform="translate(291.387158, 73.743457)"><g><path d="M 2.734375 -3.65625 L 2.734375 -1.375 L 6.703125 -1.375 L 6.703125 0 L 1.078125 0 L 1.078125 -8.328125 L 6.609375 -8.328125 L 6.609375 -6.953125 L 2.734375 -6.953125 L 2.734375 -5 L 6.125 -5 L 6.125 -3.65625 Z M 2.734375 -3.65625 "/></g></g></g><g fill="#ffffff" fill-opacity="1"><g transform="translate(298.548521, 73.743457)"><g><path d="M 6.671875 -8.328125 L 6.671875 -6.953125 L 4.28125 -6.953125 L 4.28125 0 L 2.640625 0 L 2.640625 -6.953125 L 0.234375 -6.953125 L 0.234375 -8.328125 Z M 6.671875 -8.328125 "/></g></g></g><g fill="#ffffff" fill-opacity="1"><g transform="translate(305.453506, 73.743457)"><g><path d="M 3.6875 0.125 C 3.113281 0.125 2.597656 0.0507812 2.140625 -0.09375 C 1.691406 -0.238281 1.316406 -0.425781 1.015625 -0.65625 C 0.722656 -0.882812 0.5 -1.140625 0.34375 -1.421875 L 1.25 -2.53125 L 1.390625 -2.53125 C 1.640625 -2.15625 1.957031 -1.859375 2.34375 -1.640625 C 2.726562 -1.421875 3.175781 -1.3125 3.6875 -1.3125 C 4.132812 -1.3125 4.46875 -1.398438 4.6875 -1.578125 C 4.914062 -1.765625 5.03125 -2.023438 5.03125 -2.359375 C 5.03125 -2.554688 4.992188 -2.71875 4.921875 -2.84375 C 4.847656 -2.976562 4.726562 -3.09375 4.5625 -3.1875 C 4.394531 -3.28125 4.164062 -3.363281 3.875 -3.4375 L 2.8125 -3.6875 C 2.0625 -3.851562 1.503906 -4.132812 1.140625 -4.53125 C 0.773438 -4.925781 0.59375 -5.441406 0.59375 -6.078125 C 0.59375 -6.546875 0.707031 -6.957031 0.9375 -7.3125 C 1.175781 -7.675781 1.519531 -7.957031 1.96875 -8.15625 C 2.414062 -8.351562 2.953125 -8.453125 3.578125 -8.453125 C 4.222656 -8.453125 4.773438 -8.363281 5.234375 -8.1875 C 5.691406 -8.019531 6.078125 -7.765625 6.390625 -7.421875 L 5.578125 -6.296875 L 5.4375 -6.296875 C 5.195312 -6.546875 4.925781 -6.734375 4.625 -6.859375 C 4.320312 -6.984375 3.972656 -7.046875 3.578125 -7.046875 C 3.128906 -7.046875 2.785156 -6.960938 2.546875 -6.796875 C 2.316406 -6.640625 2.203125 -6.421875 2.203125 -6.140625 C 2.203125 -5.878906 2.285156 -5.671875 2.453125 -5.515625 C 2.617188 -5.359375 2.90625 -5.238281 3.3125 -5.15625 L 4.40625 -4.921875 C 5.207031 -4.753906 5.789062 -4.460938 6.15625 -4.046875 C 6.519531 -3.640625 6.703125 -3.109375 6.703125 -2.453125 C 6.703125 -1.929688 6.585938 -1.476562 6.359375 -1.09375 C 6.140625 -0.707031 5.800781 -0.40625 5.34375 -0.1875 C 4.894531 0.0195312 4.34375 0.125 3.6875 0.125 Z M 3.6875 0.125 "/></g></g></g></g></g></svg>