<svg xmlns="http://www.w3.org/2000/svg" xmlns:xlink="http://www.w3.org/1999/xlink" width="500" zoomAndPan="magnify" viewBox="0 0 375 374.999991" height="500" preserveAspectRatio="xMidYMid meet" version="1.0"><defs><g/><clipPath id="61f14bd3c6"><path d="M 25.710938 46.105469 L 70.09375 46.105469 L 70.09375 61 L 25.710938 61 Z M 25.710938 46.105469 " clip-rule="nonzero"/></clipPath><clipPath id="220b390a7a"><path d="M 0.710938 0.105469 L 45.09375 0.105469 L 45.09375 14.882812 L 0.710938 14.882812 Z M 0.710938 0.105469 " clip-rule="nonzero"/></clipPath><clipPath id="3dab8ee4ee"><rect x="0" width="46" y="0" height="15"/></clipPath><clipPath id="7680c1141a"><path d="M 22 0 L 58 0 L 58 47 L 22 47 Z M 22 0 " clip-rule="nonzero"/></clipPath><clipPath id="3474904668"><path d="M 35.667969 0.128906 L 57.945312 38.515625 L 44.945312 46.0625 L 22.667969 7.675781 Z M 35.667969 0.128906 " clip-rule="nonzero"/></clipPath><clipPath id="4f3abed418"><path d="M 6 0 L 31 0 L 31 46 L 6 46 Z M 6 0 " clip-rule="nonzero"/></clipPath><clipPath id="0aad813e9b"><path d="M 13.667969 0.128906 L 35.945312 38.515625 L 22.945312 46.0625 L 0.667969 7.675781 Z M 13.667969 0.128906 " clip-rule="nonzero"/></clipPath><clipPath id="8d9cd05082"><path d="M 0.890625 7.546875 L 23.167969 45.933594 L 36.167969 38.386719 L 13.890625 0 Z M 0.890625 7.546875 " clip-rule="nonzero"/></clipPath><clipPath id="679a941d90"><rect x="0" width="36" y="0" height="47"/></clipPath><clipPath id="638527d41e"><path d="M 0.441406 22 L 36 22 L 36 69 L 0.441406 69 Z M 0.441406 22 " clip-rule="nonzero"/></clipPath><clipPath id="42c740d8e7"><path d="M 0.460938 60.636719 L 22.472656 22.09375 L 35.527344 29.550781 L 13.515625 68.089844 Z M 0.460938 60.636719 " clip-rule="nonzero"/></clipPath><clipPath id="3c6f2adccc"><path d="M 0.441406 5 L 35.480469 5 L 35.480469 41 L 0.441406 41 Z M 0.441406 5 " clip-rule="nonzero"/></clipPath><clipPath id="0e91372c31"><path d="M 0.460938 38.636719 L 22.472656 0.09375 L 35.527344 7.550781 L 13.515625 46.089844 Z M 0.460938 38.636719 " clip-rule="nonzero"/></clipPath><clipPath id="4a9e69c311"><path d="M 13.289062 45.964844 L 35.304688 7.421875 L 22.25 -0.03125 L 0.238281 38.507812 Z M 13.289062 45.964844 " clip-rule="nonzero"/></clipPath><clipPath id="317346fd93"><rect x="0" width="36" y="0" height="47"/></clipPath><clipPath id="0250a9a836"><rect x="0" width="210" y="0" height="45"/></clipPath><clipPath id="36e37b1081"><path d="M 209 59 L 308.839844 59 L 308.839844 75.839844 L 209 75.839844 Z M 209 59 " clip-rule="nonzero"/></clipPath><clipPath id="54928b0957"><path d="M 0.238281 4 L 7 4 L 7 14 L 0.238281 14 Z M 0.238281 4 " clip-rule="nonzero"/></clipPath><clipPath id="894f14a01d"><rect x="0" width="100" y="0" height="17"/></clipPath><clipPath id="5720ebfc5b"><rect x="0" width="309" y="0" height="76"/></clipPath></defs><rect x="-37.5" width="450" fill="#ffffff" y="-37.499999" height="449.999989" fill-opacity="1"/><rect x="-37.5" width="450" fill="#ffffff" y="-37.499999" height="449.999989" fill-opacity="1"/><g transform="matrix(1, 0, 0, 1, 31, 150)"><g clip-path="url(#5720ebfc5b)"><g clip-path="url(#61f14bd3c6)"><g transform="matrix(1, 0, 0, 1, 25, 46)"><g clip-path="url(#3dab8ee4ee)"><g clip-path="url(#220b390a7a)"><path fill="#d20505" d="M 45.28125 14.882812 L 15.488281 14.882812 C 7.328125 14.882812 0.714844 8.265625 0.714844 0.105469 L 30.503906 0.105469 C 38.664062 0.105469 45.28125 6.722656 45.28125 14.882812 Z M 45.28125 14.882812 " fill-opacity="1" fill-rule="nonzero"/></g></g></g></g><g clip-path="url(#7680c1141a)"><g clip-path="url(#3474904668)"><g transform="matrix(1, 0, 0, 1, 22, 0)"><g clip-path="url(#679a941d90)"><g clip-path="url(#4f3abed418)"><g clip-path="url(#0aad813e9b)"><g clip-path="url(#8d9cd05082)"><path fill="#d9d9d9" d="M 23.261719 46.09375 L 8.347656 20.398438 L 8.308594 20.328125 C 4.210938 13.269531 6.613281 4.226562 13.671875 0.132812 L 28.585938 25.828125 L 28.625 25.898438 C 32.71875 32.957031 30.320312 42 23.261719 46.09375 Z M 23.261719 46.09375 " fill-opacity="1" fill-rule="nonzero"/></g></g></g></g></g></g></g><g clip-path="url(#638527d41e)"><g clip-path="url(#42c740d8e7)"><g transform="matrix(1, 0, 0, 1, -0.000000000000003553, 22)"><g clip-path="url(#317346fd93)"><g clip-path="url(#3c6f2adccc)"><g clip-path="url(#0e91372c31)"><g clip-path="url(#4a9e69c311)"><path fill="#043469" d="M 35.394531 7.261719 L 28.027344 20.160156 L 20.660156 33.0625 L 20.621094 33.128906 C 16.574219 40.214844 7.546875 42.679688 0.460938 38.632812 L 7.832031 25.734375 L 15.199219 12.832031 L 15.238281 12.761719 C 19.285156 5.675781 28.308594 3.214844 35.394531 7.261719 Z M 35.394531 7.261719 " fill-opacity="1" fill-rule="nonzero"/></g></g></g></g></g></g></g><g transform="matrix(1, 0, 0, 1, 70, 24)"><g clip-path="url(#0250a9a836)"><g fill="#0f245b" fill-opacity="1"><g transform="translate(0.285755, 33.717982)"><g><path d="M 8.59375 -30.921875 L 8.59375 -4.015625 L 24.328125 -4.015625 L 24.328125 0 L 4.453125 0 L 4.453125 -30.921875 Z M 8.59375 -30.921875 "/></g></g></g><g fill="#0f245b" fill-opacity="1"><g transform="translate(25.084486, 33.717982)"><g><path d="M 12.75 -30.921875 C 16.113281 -30.921875 18.742188 -30.078125 20.640625 -28.390625 C 22.535156 -26.710938 23.484375 -24.363281 23.484375 -21.34375 C 23.484375 -19.601562 23.128906 -17.976562 22.421875 -16.46875 C 21.722656 -14.957031 20.597656 -13.726562 19.046875 -12.78125 C 17.492188 -11.84375 15.535156 -11.375 13.171875 -11.375 L 8.59375 -11.375 L 8.59375 0 L 4.453125 0 L 4.453125 -30.921875 Z M 13.171875 -15.390625 C 14.648438 -15.390625 15.851562 -15.703125 16.78125 -16.328125 C 17.707031 -16.960938 18.367188 -17.726562 18.765625 -18.625 C 19.171875 -19.519531 19.375 -20.394531 19.375 -21.25 C 19.375 -22.738281 18.890625 -24.054688 17.921875 -25.203125 C 16.953125 -26.359375 15.441406 -26.9375 13.390625 -26.9375 L 8.59375 -26.9375 L 8.59375 -15.390625 Z M 13.171875 -15.390625 "/></g></g></g><g fill="#0f245b" fill-opacity="1"><g transform="translate(48.728782, 33.717982)"><g><path d="M 28.953125 0 L 24.796875 0 L 24.796875 -13.5625 L 8.59375 -13.5625 L 8.59375 0 L 4.453125 0 L 4.453125 -30.921875 L 8.59375 -30.921875 L 8.59375 -17.53125 L 24.796875 -17.53125 L 24.796875 -30.921875 L 28.953125 -30.921875 Z M 28.953125 0 "/></g></g></g><g fill="#0f245b" fill-opacity="1"><g transform="translate(80.325857, 33.717982)"><g><path d="M 20.65625 -8.125 L 8.765625 -8.125 L 5.46875 0 L 1.375 0 L 14.875 -32.203125 L 15.140625 -32.203125 L 28.65625 0 L 23.859375 0 Z M 19.25 -11.71875 L 14.84375 -23.015625 L 10.265625 -11.71875 Z M 19.25 -11.71875 "/></g></g></g><g fill="#0f245b" fill-opacity="1"><g transform="translate(108.502378, 33.717982)"><g><path d="M 27.15625 -2.3125 C 26.15625 -1.65625 24.890625 -1.046875 23.359375 -0.484375 C 21.835938 0.0664062 20.179688 0.34375 18.390625 0.34375 C 15.222656 0.34375 12.4375 -0.351562 10.03125 -1.75 C 7.625 -3.144531 5.769531 -5.023438 4.46875 -7.390625 C 3.164062 -9.765625 2.515625 -12.375 2.515625 -15.21875 C 2.515625 -18.269531 3.171875 -21.015625 4.484375 -23.453125 C 5.796875 -25.890625 7.613281 -27.800781 9.9375 -29.1875 C 12.257812 -30.570312 14.890625 -31.265625 17.828125 -31.265625 C 19.566406 -31.265625 21.191406 -31.035156 22.703125 -30.578125 C 24.210938 -30.117188 25.566406 -29.519531 26.765625 -28.78125 L 25.109375 -24.890625 C 22.734375 -26.484375 20.351562 -27.28125 17.96875 -27.28125 C 15.96875 -27.28125 14.117188 -26.753906 12.421875 -25.703125 C 10.722656 -24.648438 9.367188 -23.21875 8.359375 -21.40625 C 7.347656 -19.59375 6.84375 -17.601562 6.84375 -15.4375 C 6.84375 -13.21875 7.304688 -11.207031 8.234375 -9.40625 C 9.160156 -7.613281 10.484375 -6.207031 12.203125 -5.1875 C 13.929688 -4.175781 15.921875 -3.671875 18.171875 -3.671875 C 20.941406 -3.671875 23.351562 -4.457031 25.40625 -6.03125 Z M 27.15625 -2.3125 "/></g></g></g><g fill="#0f245b" fill-opacity="1"><g transform="translate(136.379604, 33.717982)"><g><path d="M 2.515625 -15.4375 C 2.515625 -18.257812 3.226562 -20.878906 4.65625 -23.296875 C 6.082031 -25.722656 8 -27.65625 10.40625 -29.09375 C 12.820312 -30.539062 15.453125 -31.265625 18.296875 -31.265625 C 21.117188 -31.265625 23.742188 -30.539062 26.171875 -29.09375 C 28.597656 -27.65625 30.53125 -25.722656 31.96875 -23.296875 C 33.40625 -20.878906 34.125 -18.257812 34.125 -15.4375 C 34.125 -12.582031 33.410156 -9.941406 31.984375 -7.515625 C 30.554688 -5.097656 28.625 -3.179688 26.1875 -1.765625 C 23.75 -0.359375 21.117188 0.34375 18.296875 0.34375 C 15.453125 0.34375 12.816406 -0.351562 10.390625 -1.75 C 7.960938 -3.144531 6.039062 -5.046875 4.625 -7.453125 C 3.21875 -9.867188 2.515625 -12.53125 2.515625 -15.4375 Z M 6.796875 -15.390625 C 6.796875 -13.285156 7.304688 -11.332031 8.328125 -9.53125 C 9.359375 -7.738281 10.765625 -6.3125 12.546875 -5.25 C 14.328125 -4.195312 16.273438 -3.671875 18.390625 -3.671875 C 20.492188 -3.671875 22.421875 -4.191406 24.171875 -5.234375 C 25.929688 -6.273438 27.316406 -7.703125 28.328125 -9.515625 C 29.335938 -11.328125 29.84375 -13.300781 29.84375 -15.4375 C 29.84375 -17.570312 29.328125 -19.550781 28.296875 -21.375 C 27.273438 -23.207031 25.878906 -24.648438 24.109375 -25.703125 C 22.347656 -26.753906 20.410156 -27.28125 18.296875 -27.28125 C 16.191406 -27.28125 14.253906 -26.742188 12.484375 -25.671875 C 10.722656 -24.609375 9.332031 -23.164062 8.3125 -21.34375 C 7.300781 -19.519531 6.796875 -17.535156 6.796875 -15.390625 Z M 6.796875 -15.390625 "/></g></g></g><g fill="#0f245b" fill-opacity="1"><g transform="translate(171.226222, 33.717982)"><g><path d="M 35.203125 -31.90625 L 35.203125 0 L 31.09375 0 L 31.09375 -20.015625 L 19.71875 -3.890625 L 19.625 -3.890625 L 8.46875 -19.453125 L 8.46875 0 L 4.453125 0 L 4.453125 -31.90625 L 4.484375 -31.90625 L 19.71875 -10.34375 L 35.15625 -31.90625 Z M 35.203125 -31.90625 "/></g></g></g></g></g><g clip-path="url(#36e37b1081)"><g transform="matrix(1, 0, 0, 1, 209, 59)"><g clip-path="url(#894f14a01d)"><g clip-path="url(#54928b0957)"><g fill="#0f245b" fill-opacity="1"><g transform="translate(0.324876, 13.094708)"><g><path d="M 6.59375 -8.21875 L 6.59375 -6.859375 L 4.21875 -6.859375 L 4.21875 0 L 2.59375 0 L 2.59375 -6.859375 L 0.21875 -6.859375 L 0.21875 -8.21875 Z M 6.59375 -8.21875 "/></g></g></g></g><g fill="#0f245b" fill-opacity="1"><g transform="translate(7.140909, 13.094708)"><g><path d="M 2.6875 -3.609375 L 2.6875 -1.359375 L 6.625 -1.359375 L 6.625 0 L 1.0625 0 L 1.0625 -8.21875 L 6.53125 -8.21875 L 6.53125 -6.859375 L 2.6875 -6.859375 L 2.6875 -4.9375 L 6.046875 -4.9375 L 6.046875 -3.609375 Z M 2.6875 -3.609375 "/></g></g></g><g fill="#0f245b" fill-opacity="1"><g transform="translate(14.210016, 13.094708)"><g><path d="M 4.5 0.125 C 3.738281 0.125 3.066406 -0.03125 2.484375 -0.34375 C 1.910156 -0.664062 1.457031 -1.140625 1.125 -1.765625 C 0.800781 -2.398438 0.640625 -3.179688 0.640625 -4.109375 C 0.640625 -5.035156 0.800781 -5.8125 1.125 -6.4375 C 1.457031 -7.070312 1.910156 -7.546875 2.484375 -7.859375 C 3.066406 -8.179688 3.738281 -8.34375 4.5 -8.34375 C 5.28125 -8.34375 5.945312 -8.1875 6.5 -7.875 C 7.0625 -7.5625 7.457031 -7.085938 7.6875 -6.453125 L 6.5 -5.734375 L 6.359375 -5.734375 C 6.179688 -6.160156 5.941406 -6.46875 5.640625 -6.65625 C 5.347656 -6.84375 4.96875 -6.9375 4.5 -6.9375 C 3.8125 -6.9375 3.273438 -6.707031 2.890625 -6.25 C 2.515625 -5.800781 2.328125 -5.085938 2.328125 -4.109375 C 2.328125 -3.128906 2.515625 -2.410156 2.890625 -1.953125 C 3.273438 -1.503906 3.8125 -1.28125 4.5 -1.28125 C 5.5625 -1.28125 6.210938 -1.800781 6.453125 -2.84375 L 6.59375 -2.84375 L 7.796875 -2.21875 C 7.566406 -1.4375 7.179688 -0.847656 6.640625 -0.453125 C 6.097656 -0.0664062 5.382812 0.125 4.5 0.125 Z M 4.5 0.125 "/></g></g></g><g fill="#0f245b" fill-opacity="1"><g transform="translate(22.27453, 13.094708)"><g><path d="M 6.375 -5.125 L 6.375 -8.21875 L 8 -8.21875 L 8 0 L 6.375 0 L 6.375 -3.75 L 2.6875 -3.75 L 2.6875 0 L 1.0625 0 L 1.0625 -8.21875 L 2.6875 -8.21875 L 2.6875 -5.125 Z M 6.375 -5.125 "/></g></g></g><g fill="#0f245b" fill-opacity="1"><g transform="translate(31.345705, 13.094708)"><g/></g></g><g fill="#0f245b" fill-opacity="1"><g transform="translate(34.061998, 13.094708)"><g><path d="M 3.359375 0.125 C 2.765625 0.125 2.242188 0.0234375 1.796875 -0.171875 C 1.347656 -0.378906 1.003906 -0.671875 0.765625 -1.046875 C 0.523438 -1.429688 0.40625 -1.875 0.40625 -2.375 C 0.40625 -2.914062 0.539062 -3.363281 0.8125 -3.71875 C 1.082031 -4.070312 1.488281 -4.363281 2.03125 -4.59375 L 2.046875 -4.71875 C 1.796875 -5.019531 1.613281 -5.296875 1.5 -5.546875 C 1.394531 -5.804688 1.34375 -6.09375 1.34375 -6.40625 C 1.34375 -6.78125 1.429688 -7.113281 1.609375 -7.40625 C 1.796875 -7.695312 2.054688 -7.925781 2.390625 -8.09375 C 2.734375 -8.257812 3.144531 -8.34375 3.625 -8.34375 C 4.070312 -8.34375 4.453125 -8.265625 4.765625 -8.109375 C 5.085938 -7.960938 5.332031 -7.753906 5.5 -7.484375 C 5.675781 -7.222656 5.765625 -6.914062 5.765625 -6.5625 C 5.765625 -6.09375 5.625 -5.6875 5.34375 -5.34375 C 5.0625 -5 4.628906 -4.71875 4.046875 -4.5 L 4.03125 -4.375 L 5.546875 -2.375 C 5.640625 -2.5625 5.703125 -2.78125 5.734375 -3.03125 C 5.773438 -3.289062 5.796875 -3.578125 5.796875 -3.890625 L 5.78125 -4.1875 L 7.109375 -4.1875 C 7.109375 -3.03125 6.878906 -2.097656 6.421875 -1.390625 C 6.515625 -1.304688 6.59375 -1.25 6.65625 -1.21875 C 6.726562 -1.195312 6.804688 -1.1875 6.890625 -1.1875 C 6.972656 -1.1875 7.035156 -1.1875 7.078125 -1.1875 C 7.128906 -1.195312 7.1875 -1.210938 7.25 -1.234375 L 7.328125 -1.203125 L 7.53125 -0.078125 C 7.457031 -0.0234375 7.351562 0.0078125 7.21875 0.03125 C 7.09375 0.0625 6.945312 0.078125 6.78125 0.078125 C 6.507812 0.078125 6.269531 0.03125 6.0625 -0.0625 C 5.851562 -0.15625 5.65625 -0.296875 5.46875 -0.484375 L 5.359375 -0.484375 C 4.890625 -0.078125 4.222656 0.125 3.359375 0.125 Z M 3.359375 -5.265625 C 3.703125 -5.441406 3.953125 -5.617188 4.109375 -5.796875 C 4.273438 -5.972656 4.359375 -6.191406 4.359375 -6.453125 C 4.359375 -6.691406 4.289062 -6.875 4.15625 -7 C 4.019531 -7.125 3.835938 -7.1875 3.609375 -7.1875 C 3.367188 -7.1875 3.175781 -7.117188 3.03125 -6.984375 C 2.894531 -6.847656 2.828125 -6.660156 2.828125 -6.421875 C 2.828125 -6.242188 2.863281 -6.070312 2.9375 -5.90625 C 3.019531 -5.75 3.160156 -5.535156 3.359375 -5.265625 Z M 3.5625 -1.21875 C 3.914062 -1.21875 4.222656 -1.285156 4.484375 -1.421875 L 2.65625 -3.75 C 2.4375 -3.613281 2.273438 -3.445312 2.171875 -3.25 C 2.066406 -3.0625 2.015625 -2.832031 2.015625 -2.5625 C 2.015625 -2.300781 2.078125 -2.066406 2.203125 -1.859375 C 2.328125 -1.648438 2.503906 -1.488281 2.734375 -1.375 C 2.972656 -1.269531 3.25 -1.21875 3.5625 -1.21875 Z M 3.5625 -1.21875 "/></g></g></g><g fill="#0f245b" fill-opacity="1"><g transform="translate(41.744094, 13.094708)"><g/></g></g><g fill="#0f245b" fill-opacity="1"><g transform="translate(44.460388, 13.094708)"><g><path d="M 4 0.125 C 3.3125 0.125 2.71875 -0.03125 2.21875 -0.34375 C 1.71875 -0.664062 1.328125 -1.140625 1.046875 -1.765625 C 0.773438 -2.398438 0.640625 -3.179688 0.640625 -4.109375 C 0.640625 -5.046875 0.800781 -5.828125 1.125 -6.453125 C 1.457031 -7.085938 1.910156 -7.5625 2.484375 -7.875 C 3.066406 -8.1875 3.742188 -8.34375 4.515625 -8.34375 C 5.296875 -8.34375 5.960938 -8.195312 6.515625 -7.90625 C 7.078125 -7.613281 7.46875 -7.175781 7.6875 -6.59375 L 6.5 -5.875 L 6.359375 -5.875 C 6.191406 -6.25 5.957031 -6.519531 5.65625 -6.6875 C 5.351562 -6.851562 4.972656 -6.9375 4.515625 -6.9375 C 3.804688 -6.9375 3.265625 -6.710938 2.890625 -6.265625 C 2.515625 -5.816406 2.328125 -5.097656 2.328125 -4.109375 C 2.328125 -3.117188 2.5 -2.394531 2.84375 -1.9375 C 3.195312 -1.488281 3.71875 -1.265625 4.40625 -1.265625 C 5 -1.265625 5.4375 -1.394531 5.71875 -1.65625 C 6 -1.925781 6.140625 -2.328125 6.140625 -2.859375 L 6.140625 -3.21875 L 4.1875 -3.21875 L 4.1875 -4.53125 L 7.75 -4.53125 L 7.75 0 L 6.203125 0 L 6.203125 -1.109375 L 6.078125 -1.125 C 5.910156 -0.726562 5.65625 -0.421875 5.3125 -0.203125 C 4.96875 0.015625 4.53125 0.125 4 0.125 Z M 4 0.125 "/></g></g></g><g fill="#0f245b" fill-opacity="1"><g transform="translate(53.036669, 13.094708)"><g><path d="M 7.890625 0 L 6.171875 0 L 5.5625 -1.890625 L 2.40625 -1.890625 L 1.796875 0 L 0.125 0 L 2.96875 -8.21875 L 5.046875 -8.21875 Z M 3.90625 -6.5 L 2.84375 -3.265625 L 5.109375 -3.265625 L 4.046875 -6.5 Z M 3.90625 -6.5 "/></g></g></g><g fill="#0f245b" fill-opacity="1"><g transform="translate(61.050572, 13.094708)"><g><path d="M 4.03125 -8.21875 C 5.363281 -8.21875 6.378906 -7.875 7.078125 -7.1875 C 7.785156 -6.5 8.140625 -5.472656 8.140625 -4.109375 C 8.140625 -2.753906 7.785156 -1.726562 7.078125 -1.03125 C 6.378906 -0.34375 5.363281 0 4.03125 0 L 1.0625 0 L 1.0625 -8.21875 Z M 3.9375 -1.359375 C 4.78125 -1.359375 5.410156 -1.578125 5.828125 -2.015625 C 6.242188 -2.453125 6.453125 -3.148438 6.453125 -4.109375 C 6.453125 -5.078125 6.242188 -5.773438 5.828125 -6.203125 C 5.410156 -6.640625 4.78125 -6.859375 3.9375 -6.859375 L 2.6875 -6.859375 L 2.6875 -1.359375 Z M 3.9375 -1.359375 "/></g></g></g><g fill="#0f245b" fill-opacity="1"><g transform="translate(69.840558, 13.094708)"><g><path d="M 4 0.125 C 3.3125 0.125 2.71875 -0.03125 2.21875 -0.34375 C 1.71875 -0.664062 1.328125 -1.140625 1.046875 -1.765625 C 0.773438 -2.398438 0.640625 -3.179688 0.640625 -4.109375 C 0.640625 -5.046875 0.800781 -5.828125 1.125 -6.453125 C 1.457031 -7.085938 1.910156 -7.5625 2.484375 -7.875 C 3.066406 -8.1875 3.742188 -8.34375 4.515625 -8.34375 C 5.296875 -8.34375 5.960938 -8.195312 6.515625 -7.90625 C 7.078125 -7.613281 7.46875 -7.175781 7.6875 -6.59375 L 6.5 -5.875 L 6.359375 -5.875 C 6.191406 -6.25 5.957031 -6.519531 5.65625 -6.6875 C 5.351562 -6.851562 4.972656 -6.9375 4.515625 -6.9375 C 3.804688 -6.9375 3.265625 -6.710938 2.890625 -6.265625 C 2.515625 -5.816406 2.328125 -5.097656 2.328125 -4.109375 C 2.328125 -3.117188 2.5 -2.394531 2.84375 -1.9375 C 3.195312 -1.488281 3.71875 -1.265625 4.40625 -1.265625 C 5 -1.265625 5.4375 -1.394531 5.71875 -1.65625 C 6 -1.925781 6.140625 -2.328125 6.140625 -2.859375 L 6.140625 -3.21875 L 4.1875 -3.21875 L 4.1875 -4.53125 L 7.75 -4.53125 L 7.75 0 L 6.203125 0 L 6.203125 -1.109375 L 6.078125 -1.125 C 5.910156 -0.726562 5.65625 -0.421875 5.3125 -0.203125 C 4.96875 0.015625 4.53125 0.125 4 0.125 Z M 4 0.125 "/></g></g></g><g fill="#0f245b" fill-opacity="1"><g transform="translate(78.41684, 13.094708)"><g><path d="M 2.6875 -3.609375 L 2.6875 -1.359375 L 6.625 -1.359375 L 6.625 0 L 1.0625 0 L 1.0625 -8.21875 L 6.53125 -8.21875 L 6.53125 -6.859375 L 2.6875 -6.859375 L 2.6875 -4.9375 L 6.046875 -4.9375 L 6.046875 -3.609375 Z M 2.6875 -3.609375 "/></g></g></g><g fill="#0f245b" fill-opacity="1"><g transform="translate(85.485946, 13.094708)"><g><path d="M 6.59375 -8.21875 L 6.59375 -6.859375 L 4.21875 -6.859375 L 4.21875 0 L 2.59375 0 L 2.59375 -6.859375 L 0.21875 -6.859375 L 0.21875 -8.21875 Z M 6.59375 -8.21875 "/></g></g></g><g fill="#0f245b" fill-opacity="1"><g transform="translate(92.301979, 13.094708)"><g><path d="M 3.640625 0.125 C 3.066406 0.125 2.554688 0.0546875 2.109375 -0.078125 C 1.671875 -0.222656 1.300781 -0.410156 1 -0.640625 C 0.707031 -0.867188 0.484375 -1.125 0.328125 -1.40625 L 1.21875 -2.484375 L 1.359375 -2.484375 C 1.609375 -2.117188 1.921875 -1.828125 2.296875 -1.609375 C 2.679688 -1.390625 3.128906 -1.28125 3.640625 -1.28125 C 4.078125 -1.28125 4.40625 -1.375 4.625 -1.5625 C 4.84375 -1.75 4.953125 -2.003906 4.953125 -2.328125 C 4.953125 -2.515625 4.914062 -2.675781 4.84375 -2.8125 C 4.78125 -2.945312 4.664062 -3.0625 4.5 -3.15625 C 4.332031 -3.25 4.109375 -3.328125 3.828125 -3.390625 L 2.765625 -3.625 C 2.035156 -3.800781 1.488281 -4.082031 1.125 -4.46875 C 0.757812 -4.863281 0.578125 -5.375 0.578125 -6 C 0.578125 -6.46875 0.691406 -6.875 0.921875 -7.21875 C 1.160156 -7.570312 1.5 -7.847656 1.9375 -8.046875 C 2.382812 -8.242188 2.914062 -8.34375 3.53125 -8.34375 C 4.164062 -8.34375 4.707031 -8.257812 5.15625 -8.09375 C 5.613281 -7.925781 6 -7.671875 6.3125 -7.328125 L 5.5 -6.21875 L 5.359375 -6.21875 C 5.128906 -6.457031 4.863281 -6.640625 4.5625 -6.765625 C 4.257812 -6.890625 3.914062 -6.953125 3.53125 -6.953125 C 3.09375 -6.953125 2.753906 -6.875 2.515625 -6.71875 C 2.285156 -6.5625 2.171875 -6.34375 2.171875 -6.0625 C 2.171875 -5.800781 2.25 -5.59375 2.40625 -5.4375 C 2.570312 -5.289062 2.859375 -5.171875 3.265625 -5.078125 L 4.34375 -4.859375 C 5.132812 -4.691406 5.710938 -4.40625 6.078125 -4 C 6.441406 -3.59375 6.625 -3.066406 6.625 -2.421875 C 6.625 -1.910156 6.507812 -1.460938 6.28125 -1.078125 C 6.0625 -0.703125 5.726562 -0.40625 5.28125 -0.1875 C 4.832031 0.0195312 4.285156 0.125 3.640625 0.125 Z M 3.640625 0.125 "/></g></g></g></g></g></g></g></g></svg>